<svg id="Layer_1" data-name="Layer 1" xmlns="http://www.w3.org/2000/svg" viewBox="0 0 1691.9 1615.2"><defs><style>.cls-1{fill:#fff;}</style></defs><path d="M3184.5-338.4c16.4-4.7,31.6-9.3,46.9-13.5,4.2-1.1,5-4.3,5.6-7.4,2.9-13.7,6.6-27.2,8.1-41.1,7.1-65.3-5.3-126.9-39.5-183-45.2-74.2-111.5-120.2-195.6-140.9-29.3-7.2-59.1-9.2-89.2-8.2-6.2.2-12.5,0-19.4,0v-28.6c7-.7,13.6-1.2,20.1-2.1,30.1-3.8,59.5-10.9,88.9-18.1,11.9-2.9,24.1-5.5,36.3-6.6,36.3-3.3,68.2,8.4,96.1,31.4s48.8,52.5,67.6,83.4c34.1,56.4,55.6,117.7,70.5,181.6,1.6,6.5,4.4,9.2,10.5,11,27.7,8.6,55.1,18,81.3,30.3,17.5,8.3,34.2,17.9,48.3,31.5,2.6,2.5,5.2,5.1,7.7,7.8,19.4,22,19.5,46.2,0,68.3-12.7,14.5-28.6,24.8-45.4,33.8-33.6,18-69.4,30.3-105.8,41.1a1172.8,1172.8,0,0,1-166.6,36.4c-45.8,6.7-91.7,11.9-138.1,12.9-43.9.9-87.8,2-131.7,1.5-58.7-.7-117-6.5-175-15.3-63.2-9.5-125.6-23.1-186.6-42.5-34.9-11.1-69.2-23.8-100.2-43.9-11.5-7.4-22.3-15.8-30.9-26.6-15.4-19.5-16.2-39.2-2.3-59.8,8.2-12.1,19-21.4,31.1-29.3,18.5-12,38.7-20.8,59.3-28.3s39.1-13.2,58.6-19.8l6.7-2.2c3.6-14.6,6.9-29.2,10.9-43.6,17.2-61.7,41.8-120,78.1-173a297.3,297.3,0,0,1,37-44.5c38.4-38,83.6-51.3,136.3-37.5,31.6,8.2,63.3,15.4,95.7,19.9l16.1,1.9v105c-52.8,10.6-93.6,38.6-119.8,86s-27.3,96.5-9.5,147.8c-84.2-5.6-165.6-19.2-245.8-44.9-6.5,29.7-10.3,59.2-12.8,89.2,11,7.1,22.8,11.5,34.6,15.9,40.4,14.9,82.2,24.2,124.5,31.6,57.1,10.1,114.7,15.9,172.5,19.7,15.9,1,31.9,1.5,47.9,2.3l8.6.6v50h22.6c2.3-6,2.7-98.8.1-117.6-36-4.8-65.7-21.1-85.2-53.2-12.8-21.1-17.8-44.1-15.9-68.8,2.9-39.4,33.5-91.8,102-100.1.4-30.2.8-60.7,1.2-92.2,13.1,0,25.3-.7,37.5.1,38.1,2.4,75.2,9.7,110,26,77.1,35.9,127.9,94.4,147.7,177.6,10.7,44.6,7.4,89.3-7.1,133-1.3,4.1-2.8,8.1-4.2,12.2A22.1,22.1,0,0,0,3184.5-338.4ZM2973.9-487.1c-.1-34.3-28.8-62.9-63.1-62.9s-63,28.1-63,62.6a62.4,62.4,0,0,0,62.8,62.7C2945.4-424.6,2973.9-452.7,2973.9-487.1Zm31.6-134.6c1.9,1.5,3.4,2.8,5,3.9,53.9,38.9,78.6,104.3,63.7,169-9.3,40.4-32.5,71.5-64.7,96.6-2,1.5-3.9,3.3-6.4,5.4l17.6,25.8c46.1-20.3,91.6-95.1,93.2-152.3,2.1-74-27.2-131.8-88.9-173.7-2.6,2.9-4.8,5-6.6,7.4C3014.1-633.8,3009.9-627.9,3005.5-621.7Zm-85.3,271.6c73.1-1.7,134.1-69.9,129.5-143.3-4.3-68.9-70-133.7-129.3-126.6v22.4l6.4,1.3c29.5,5.2,54.7,18,73.5,42.1s28,53.7,22.9,85.2c-7.7,47.2-44.5,83.7-91.7,92.4-3.8.7-7.6,1.6-11.3,2.4Z" transform="translate(-2044 788.5)"/><path d="M2490.2-229.6c127.1,35,255,51.5,385.6,53.3V229.3l-19.1-7.7-11.1-4.7c-6-2.6-14-3.8-17.5-8.3s-2.7-12.7-3.8-19.2-2.5-14.1-3.8-21.1h-2.1c-4.5,19-9,38-13.8,58.1l71.2,25.4V341c-36.6-10.7-71.1.1-108.1,5.3,35.4,16,69.6,29,108.1,26.7V523.2c-10.5-2.5-20.5-4.4-30.2-7.3-32.9-10.2-61.9-27.9-88.3-49.4-76-62-132.4-138.1-164.2-231.4-9.6-28.4-15.4-57.9-20.6-87.4q-17.1-97.3-34-194.7c-5.3-30.5-14.9-60-23.4-89.7s-15.9-57-23.8-85.6A65.6,65.6,0,0,1,2490.2-229.6Zm143.2,200C2650.2-17.4,2667-5.5,2686.9.6a85,85,0,0,0,27.4,4c29.5-.9,52.7-17,76.4-32.9C2740.2-70.5,2685.7-72.9,2633.4-29.6ZM2571.2-81l6.6-1c26.1-5,52.2-10.5,78.9-11.1,44.5-1.1,88.3,4.9,132.1,11.5,8.5,1.3,17.1,2.9,25.6,4.4a205.1,205.1,0,0,0-48.3-21.2c-41.1-12.5-83.2-20.7-125.5-27.8-4.1-.7-7,.7-10.1,2.9-16.8,12-33.7,23.8-50.6,35.7C2577.5-85.9,2575.3-84.1,2571.2-81Z" transform="translate(-2044 788.5)"/><path d="M2619.5,379.4c14.6,18.1,28.8,36.6,44,54.2,29.5,34.1,62.7,64.3,100.6,89.1,33.8,22.1,70,38.3,110.6,42.5,2.1,6.7,2.5,246.9.3,261.5-13.3-.9-26.8-1.5-40.3-2.8-87.1-8.5-169.6-33-247.8-71.8a785.3,785.3,0,0,1-205.5-146.8c-2.8-2.8-5.5-5.8-9.3-9.9l191.1-86c5.4,28.5,19.6,52.3,31.3,77.1,4.9,10.4,10.3,20.5,15.5,30.7l2-.3,5.4-237.7Z" transform="translate(-2044 788.5)"/><path d="M3048.1,804.3c15.8-18.3,31.8-36.5,47.4-55.1,26-30.8,51-62.4,72.7-96.4,16.8-26.1,31.6-53.4,38.2-84.1,3-13.9,4-28.2,5.5-42.4.5-5.5.1-11,.1-18.2l193.3,87.6C3305,698.5,3188.2,771.2,3048.1,804.3Z" transform="translate(-2044 788.5)"/><path d="M3528.8-41.4H3368.5c-.2-5.7-.4-10.6-.5-15.5s0-9.9,0-15.5c2.5-.2,4.8,0,6.9-.5s6.8-1.3,8.9-3.3c19.6-18.5,38.9-37.3,58.3-56.1.8-.8,1.3-2,2.7-4.2H3342.4v-31.8h10.5c38.9-.1,77.9-.3,116.8-.1,6.1.1,10.9-1.1,14.7-6.1,5-6.6,11.8-8.5,20.1-8.4,25.3.4,50.6,0,75.9-.1h12.4c4.9-17.8,14.1-32.1,30.8-40.1,12.3-6,25.6-7.3,39-4.6,27.3,5.5,46,27.3,46.1,55s-17.6,49.3-42.3,56.3c-29,8.3-54.4-3.8-72.1-35.1-2.7-.2-5.9-.7-9.1-.7-23.7.1-47.3.5-70.9.4-5.2,0-8.8,1.9-12.3,5.4q-25.8,25.6-51.9,51.2c-7,6.9-14.3,13.5-23,21.7,4.6.2,7.1.4,9.6.4,30-.1,59.9-.2,89.9,0,5.6,0,8.8-2,12.2-6.5,12.5-16.7,35-22.2,54.7-14.1s32.2,28.6,29.7,49.4a47.6,47.6,0,0,1-40.1,41.4c-23.1,3.3-42.1-7.5-51-29.3C3531-35,3530.1-37.8,3528.8-41.4Z" transform="translate(-2044 788.5)"/><path d="M2345.7-74.7c-1.5-1.8-2.5-3.1-3.6-4.2-22.2-22.1-44.5-44.1-66.5-66.3-5-5.1-10.2-7.4-17.5-7.2-22.3.5-44.6.5-66.9.3-5.7-.1-8.7,1.6-11.5,6.9-19.2,35.6-69.4,41.7-95.7,11.9-23.8-26.8-16.5-72.1,14.7-88.9,24.6-13.2,69.1-9.9,84.2,31.5.8,2.2,1.4,4.4,2.5,7.8h10.4c26,0,52,.2,77.9-.2,7.6-.1,13.8,1.7,18.4,7.7s10.2,7.3,17.4,7.2c37.9-.3,75.8-.2,113.8-.2h11.9v31.6c-34.5.5-68.4-.1-104.8-.1,4.1,4.6,6.6,7.5,9.3,10.2l50.7,49.5c3.1,3,6.2,4.9,10.6,4.5a34.9,34.9,0,0,1,6.5.5v30.6H2248.9a40.5,40.5,0,0,0-1.9,4.9C2241.1-16,2225.5-4,2204.3-2.3a45.6,45.6,0,0,1-48.8-44.6c-.5-18,6-33.6,22.1-43.1s33.6-10.2,50.2-.5c5.3,3.1,9.5,8.2,13.8,12.8,2.3,2.6,4.2,4.7,8.1,4.6l92.9-.3C2343.2-73.4,2343.7-73.9,2345.7-74.7Z" transform="translate(-2044 788.5)"/><path d="M3218.9,175.9c-11.9,34.5-23.2,68.8-41.6,100.7,0-17.4-.4-34.3.1-51.1.3-7.6-1.4-13.9-6.7-19s-7.1-12.1-6.9-19.9c.5-19.6.3-39.2.1-58.9,0-5,1.3-8.1,5.7-11.4q68.3-52.3,59.4-138c-.6-5.7-1.6-11.2-2.5-17,.2-.4.2-1.2.7-1.6,12.9-9.2,15.6-21.8,15.2-37.2-1.1-43.6-.6-87.3-.8-130.9v-8.3l47.2-12.6c0,9.8,1.1,18.8-.2,27.4-4.9,32.2-10.5,64.3-15.8,96.5-.8,4.8-1.8,9.6-2.6,14.2,7.1-2.2,13.8-5.1,20.7-6.2,13.5-2.2,24.9,4.2,31.2,16.4,4.3,8.2,5.8,16.9,6,26,.6,24.5-3,48.5-8.9,72.2-9.6,38.8-22.8,76.4-40.7,112.3-1.8,3.6-3.8,7-5.8,10.5C3260.7,160.6,3245,175.9,3218.9,175.9Z" transform="translate(-2044 788.5)"/><path d="M3159.9,380.5c0,4.9,0,9.8.1,14.8.5,37.2.8,74.5,1.8,111.8,1,40.1-11.2,75.8-33.8,108.7-27.4,39.8-58.5,76.7-90.2,113.1-24.7,28.4-50.1,56.2-74.9,84.5-5.4,6.1-10.9,9.7-19.4,9.9-10.3.2-20.5,1.9-30.8,2.8-3.6.3-7.2,0-11.3,0V702.8h11.3c20.9,0,41.9-.2,62.9-.1a17.8,17.8,0,0,0,13.4-5.1q48.6-45.9,97.6-91.5c3.5-3.3,3.6-6.9,3.6-10.9q.2-41.9.2-83.9c0-16-.2-31.9,0-47.9,0-3,1-6.8,3-8.8,22.4-22.5,42.5-46.8,62-71.8a35.7,35.7,0,0,1,2.7-2.8Z" transform="translate(-2044 788.5)"/><path d="M3086.5,117.2c-50.6,2.3-119.5-39.7-119.8-120-.3-65.3,49.8-118.4,118.8-120,59.7-1.5,121.7,45.5,121.9,119.9C3207.5,63.3,3153,118.4,3086.5,117.2Zm1.6-188.8c-44.8-1-70.2,36.2-70.2,67.7.1,38.1,29.8,68.3,68.3,68.8s69.1-30.5,69.2-69.1C3155.5-40.9,3125.2-71.4,3088.1-71.6Z" transform="translate(-2044 788.5)"/><path d="M2975,276.9h-72.3c-1.8-6.2-3.1-440.6-1.2-453H2950v10.7c0,31.6-.2,63.2.1,94.9,0,4.3,1.6,8.5,3.4,12.8-9.3,27-12.8,54.7-7.4,83.3s18.7,53.2,39.4,74.2L2954.8,132c14.8,19.6,32.7,35.1,49.1,53.2-7.7,8.1-14.9,16.3-22.7,23.8-4.7,4.6-6.4,9.7-6.3,16,.3,13.7.1,27.4.1,41Z" transform="translate(-2044 788.5)"/><path d="M3108.8,255.6c0-7.3.7-14.7-.2-21.9s.7-12,5.4-16.2c10.3-9.3,13.1-20.6,12-34.1s-.4-24.6-.4-36.9v-9.9l17.6-5.8c.3,3,.8,5.5.8,7.9,0,19,.2,38-.1,57-.1,6.3.8,11.8,5.7,16.2s7,12,6.8,19.9c-.5,23.3-.3,46.6-.2,69.9a24.7,24.7,0,0,1-3.9,14,604.8,604.8,0,0,1-74.5,94.9c-5,5.2-9.8,10.7-15.2,16.5l-5.4-5c3.4-2.5,6.6-4.2,9.1-6.7,5.8-5.5,5.6-11.8,0-17.5s-19.6-7.2-25.8.8c-4.4,5.6-9.1,6.6-15.4,6.6-37.3-.3-74.5-.2-111.8-.2h-11.7V362.6a37.5,37.5,0,0,1,5.2-.7l105.8-.2c7.2,0,12.9,1.3,18,7.9,7.3,9.5,18.5,11.4,29.9,8.5s17.5-9.2,20.2-20c3.3-13.1-3.5-27-16.1-33.2s-28.8-2.4-35.8,8.5c-3,4.6-6.1,6.4-11.2,6.4l-112.8.5a3.2,3.2,0,0,1-1.8-.6c-2.4-7.1-2.7-29.5-.4-41.1h10.5c48.9-.1,97.8-.1,146.7-.4,7.4-.1,12.9,1.3,18.2,7.4,9.4,10.7,25.6,12.1,37.5,4.6a29.4,29.4,0,0,0,12.1-34C3125.3,268.8,3120.6,263.5,3108.8,255.6Z" transform="translate(-2044 788.5)"/><path d="M2520.9,223v29.9c-2.9.2-5.2.5-7.5.5-16.6.1-33.3.6-49.9,0-8.1-.3-13.7,2.1-19.1,8-13.5,14.7-27.6,28.8-41.1,43.5a17.4,17.4,0,0,1-13.9,6.1c-18-.2-36,.6-53.9.1-8.1-.2-13.7,2.4-19,8.4-8.2,9.1-17.5,17.3-25.9,26.3-4.7,5-9.7,6.8-16.7,6.7-27.2-.3-54.5,0-81.8.1h-6.5c-1.6,3.8-3.2,7.4-4.8,10.9-10.7,22.9-34.4,36-60.6,33.5-22.1-2.1-42.2-19.4-48.1-42-8.8-34,12.7-76.3,60.9-72.7,22,1.6,38.2,12.1,48.2,32l3.7,6.5h45.7c10.4,0,20.7-.3,31-.1,5.8.2,10.1-1.8,14-6.1,8.7-9.6,17.9-18.7,26.7-28.3,3.9-4.2,8.2-5.9,14-5.9,18.7.2,37.3-.4,55.9-.4,6.5,0,11.4-1.8,15.9-6.6,13.7-15,28-29.5,41.6-44.5,4.2-4.6,8.4-6.5,14.6-6.4,23.3.2,46.6-.2,69.9-.2C2516.2,222.2,2518.1,222.7,2520.9,223Z" transform="translate(-2044 788.5)"/><path d="M3256.1,253.7c0-9.8,0-17.7.1-25.7a26.6,26.6,0,0,1,.8-5.1c2.6-.2,4.8-.6,7.1-.6,21.6-.1,43.2.1,64.8-.3,6.9-.1,11.6,1.7,16.5,6.9,14.3,15.7,29.6,30.6,44.3,46.1,3.5,3.7,7.3,5.1,12.3,5.1,18.9-.1,37.9.3,56.9,0,6.5-.2,11.3,1.7,15.7,6.5,9.3,10.1,18.8,19.8,28.6,29.3,2.4,2.3,6.1,4.6,9.3,4.7,24.6.3,49.2.1,73.8.1h8.2c7.3-15.4,16.8-28.3,33.3-34.4a66.3,66.3,0,0,1,43.1-.9c22.4,6.8,39.3,32.4,37.8,56.6a58.5,58.5,0,0,1-47.5,54.4c-29.4,5.9-51.3-7.9-68.8-43.9h-14.6c-24.9.1-49.9-.1-74.8.4-6.9.1-11.9-2-16.6-7-9.3-10-19.2-19.4-28.5-29.4a15.8,15.8,0,0,0-13-5.5c-19.7.2-39.3-.1-58.9.2-5.5,0-9.3-1.6-13-5.7-14.2-15.3-29-30.2-43.2-45.6-4.5-4.8-9.2-6.8-15.7-6.6-15.7.5-31.3.3-47,.4Z" transform="translate(-2044 788.5)"/><path d="M3620.9,87h-9.6c-65.9,0-131.8,0-197.7.4-7.3,0-12.6-2-17.6-7.1-11.3-11.3-22.8-22.5-34.5-33.3-3.5-3.1-4.7-6.2-3.6-10.5,2.3-8.9,4.7-17.8,7.4-28.2,3.5,2.6,6.1,4.4,8.4,6.5,12.2,11.3,24.4,22.6,36.3,34.2,4.1,4,8.2,6,14,5.9q95.9-.3,191.8,0c7,0,9.7-3.4,13-8.3,14-21.3,34.6-28.4,58.9-24.8s39.4,18.2,46.1,41.4c7.8,26.9-6.6,55.2-32.8,66.3-35,14.7-65.7-5.9-75.5-30.5C3624,95.3,3622.7,91.5,3620.9,87Z" transform="translate(-2044 788.5)"/><path d="M2410.6,8c3.1,12.4,6,23.5,8.7,34.2-14.7,13.6-28.7,26.4-42.4,39.5-4.4,4.2-9.1,5.6-15.2,5.6q-95.8-.3-191.7-.2h-12.5c-1,2.9-2,5.6-2.9,8.4-8,23.5-29.8,38.9-55,38.7s-47.6-17.6-53.8-42.4c-6.9-27.3,6.7-55.8,31.6-66.3,26.8-11.3,58.5-2.3,72.9,21.7,3.7,6.2,7.7,7.7,14.2,7.7q93.9-.3,187.7-.1c5.1.1,8.7-1.6,12.3-5,12.3-11.7,24.9-23.1,37.4-34.5C2404.3,13.1,2406.9,11.1,2410.6,8Z" transform="translate(-2044 788.5)"/><path d="M3530.2,128.9v29.9h-74.7l-1,2c9.3,9.2,18.5,18.6,28,27.5,1.4,1.4,4.4,1.4,6.6,1.5,12,.1,24-.1,36,.1,4.4.1,7.2-1.6,9.8-5.2,13.5-18.7,36.2-21.1,51.8-16.6,18.4,5.4,32,22,34.1,41.5,2.5,22.4-13.2,43.5-37.1,50.2a45.4,45.4,0,0,1-53.3-24.7c-1.9-4.1-3.3-8.6-4.9-12.7-16.1,0-31.7-.3-47.3.1a20.8,20.8,0,0,1-16.6-7c-16.1-16.9-32.6-33.3-48.7-50.2-4.2-4.4-8.5-6.4-14.8-6.3-25,.4-49.9.3-74.9.4h-10.9l14.7-30.5Z" transform="translate(-2044 788.5)"/><path d="M2465,159.2h-30.4c-19.3,0-38.6.2-57.9,0a15.8,15.8,0,0,0-13,5.4c-16.8,17.5-34.1,34.6-51,52-4.3,4.5-8.8,6.2-15,6-14.9-.4-29.9-.1-45.1-.1-1.8,4.4-3.2,8.4-5,12.2-9.5,19.3-29.1,29.5-50.3,26.3-19-2.9-35.2-18.8-38.6-38.2s5.5-41.3,23.2-50.9c19.9-10.8,46.4-6.2,60.6,11.4,4.4,5.4,8.7,7.2,15.2,6.9,9.7-.5,19.3.1,29-.2,3-.1,6.8-1,9-2.9a314.2,314.2,0,0,0,26.2-26.6c-24.9-1.9-49.6-.7-74.9-1.7V129a68.8,68.8,0,0,1,7.7-.7c62.2-.1,124.4,0,186.7-.3,5.4,0,8.5,1.6,10.8,6.5C2455.8,142.3,2460.1,149.8,2465,159.2Z" transform="translate(-2044 788.5)"/><path d="M3488.8,531.5h-35.5c-16.6-.1-33.3-.5-49.9-.1-7.3.2-12.4-1.9-17.4-7.2-20.6-21.8-41.8-43-62.4-64.8-4.5-4.8-9.1-6.7-15.6-6.6-26.6.3-53.3.1-79.9.1H3214c-.5-9.9-.9-19.3-1.4-29.4,3.3-.2,5.9-.6,8.4-.6,34.3-.1,68.6,0,102.9-.4,5.7-.1,9.4,2.3,13,6,21.6,21.7,43.4,43.2,64.8,65.1,4.1,4.2,8.1,5.9,13.9,5.8,22.6-.4,45.3-.4,67.9-.1,5.6,0,9.1-1.4,12.2-6.4,14.2-22.6,48.2-22.7,64.1-11.3a46.4,46.4,0,0,1,11.4,63.8c-14.1,20.8-43,26.7-63.4,12.1-5.7-4.1-9.9-10.6-14.3-16.3C3491.5,538.6,3490.6,535.3,3488.8,531.5Z" transform="translate(-2044 788.5)"/><path d="M2290.2,531.7c-16.2,28.1-33.6,38.1-56.4,32.5-18.3-4.5-32.2-21.3-33.2-40.4-1.3-21.9,9.9-40.7,28.1-46.9,22.5-7.8,42.4-.4,58.8,22.1,2.3.1,5,.4,7.6.4,22.3-.1,44.6-.5,66.9-.2,6.6.1,11.1-2.1,15.5-6.8,20.6-21.3,41.6-42.2,62.2-63.5,4.5-4.6,9.2-6.4,15.8-6.3,32.6.4,65.2.1,97.8.1h11v30.1h-11c-26.9.1-53.9.6-80.9,0-9.3-.2-15.6,3.2-21.6,9.5-20,20.8-40.5,41.3-60.4,62.4-4.6,4.9-9.3,6.4-15.7,6.4-25.9-.1-51.9.1-77.8.2C2294.6,531.3,2292.3,531.5,2290.2,531.7Z" transform="translate(-2044 788.5)"/><path d="M2551.4,174.2c-14.2-.1-24.4-5.6-33-14.6s-17.2-22-23.2-34.7c-22.4-47.5-38.8-96.8-45.6-149-1.6-12.2-1.2-24.6-1-36.9a43.2,43.2,0,0,1,7.4-23.5c7.3-10.7,17.4-15,30.1-12.9s20.4,9.4,22.7,21.9c5.2,28.5,10.4,56.9,15.3,85.4q12.8,74.7,25.1,149.5C2550,164,2550.6,168.6,2551.4,174.2Z" transform="translate(-2044 788.5)"/><path d="M3523-289.4l-60.3,62a60.9,60.9,0,0,1-9.7,8.6c-2.8,1.9-6.5,3.7-9.7,3.7-32.7.2-65.3.1-97.9.1a31.2,31.2,0,0,1-4.5-.6c-2.5-9.2-4.9-18.4-7.7-28.8,3.8-.2,7-.6,10.1-.6,26.3-.1,52.6-.5,78.9-.2,9.6.1,16.9-2.5,23.7-9.8,19.5-20.8,39.8-41.1,59.9-61.4a26.7,26.7,0,0,0,7.2-13.8c4.9-24,21.8-38.1,45.3-38.4s42.4,14.5,47.9,37.4c6.3,26.2-13.2,53-41.3,56.6-12.4,1.6-23.8-.7-33.8-8.7Z" transform="translate(-2044 788.5)"/><path d="M2253.4-289c-10.2,9.8-21.5,14.7-34.8,14.8a46.4,46.4,0,0,1-46.3-39.9c-3.4-24,10.6-45.9,33.2-52.4,30.1-8.6,59.5,11.1,61.4,39.7a13.7,13.7,0,0,0,3.8,7.7c22.6,23,45.5,45.7,68.2,68.7,3.8,3.8,8.1,5,13.4,5,26.6,0,53.2.2,79.8.4h11.6c-2.3,10.1-4.4,19.4-6.7,29.1a73.7,73.7,0,0,1-7.8.8c-30.3.1-60.6-.1-90.8.2-6.9.1-12.2-1.9-16.9-6.7-17.8-18-35.8-35.8-53.7-53.6Z" transform="translate(-2044 788.5)"/><path d="M2555.6,291.6l13.6,29.7c-4.6.4-8.1.8-11.6.8-16.6.2-33.3.4-49.9.3a14.2,14.2,0,0,0-11.4,4.8c-32.6,34.2-65.5,68.2-98,102.5-3.6,3.8-7.2,5-12.1,5h-74c-6.6,0-12.6.9-18.8,4.4-19.9,11.2-42.6-2.2-42.7-24.4a27.5,27.5,0,0,1,17.2-25.8c11.8-4.6,24.7-2.4,31.8,7.1,4,5.4,8.3,6.4,14.2,6.3,19-.2,38-.2,57,.1a14.9,14.9,0,0,0,12.2-5.1c29.7-31,59.7-61.7,89.5-92.7,11.9-12.4,11.7-12.8,29-13S2536.9,291.6,2555.6,291.6Z" transform="translate(-2044 788.5)"/><path d="M3207.9,322.3c5.3-10.6,9.4-19.2,14.1-27.5.9-1.7,4.3-2.9,6.6-3,19.3-.2,38.6,0,57.8-.2,4.7-.1,7.2,2.5,10.1,5.5q41.3,42.8,82.6,85.3c5.1,5.3,10.4,10.3,15.5,15.6a12.8,12.8,0,0,0,9.6,4.2c21-.3,41.9-.4,62.9-.5,4.9,0,8.6-1.1,11.8-5.5,10.3-14.3,30.6-10.5,39.1-2.6,11.7,11,12.4,29,1.4,40.2s-26.7,12.6-38.5,4.7a23.3,23.3,0,0,0-13.9-3.9c-24.3.2-48.6-.1-72.9.2-6.9.2-11.7-2.1-16.5-7-30.8-32.2-62.1-64-92.7-96.3-6.6-6.9-13.2-9.8-22.6-9.4C3245.1,322.8,3227.8,322.3,3207.9,322.3Z" transform="translate(-2044 788.5)"/><path d="M3020,520.1l49.5-41.2a52.4,52.4,0,0,1,.9,6.9c0,32.7-.2,65.3-.1,97.9,0,6.5-1.8,10.9-6.8,15.4-24.8,22.8-49,46.1-73.5,69.1-13.8,12.9-13.9,12.8-32.5,12.8h-56.2c-.3-13.4-.4-26.1-.1-39.6,3-.3,5.5-.9,8-.9,12.4-.1,24.7-.2,37,0,4.2.1,7.8-.8,11-3.7,19.9-18.2,39.8-36.3,59.9-54.4,3.2-2.9,2.9-6.3,2.9-10Z" transform="translate(-2044 788.5)"/><path d="M3062,191.3c-6.2,7.7-14.1,14.1-17.2,22.3s-1.1,17.8-1.2,26.8c-.1,11.9,0,23.8,0,36.1-2.9.3-4.8.7-6.7.7h-40.3a84.7,84.7,0,0,1-.8-8.7c-.2-12.4,0-24.7-.5-37a17.6,17.6,0,0,1,6.1-14.9c6-5.7,11.5-12,17.2-18.1,8.5-9.1,8.1-20.7-.9-29.6l-31.4-30.8-4.7-5,20.8-19.6c30.8,22.3,65.3,29.7,102.6,26.9a65.8,65.8,0,0,1,.8,7.6c.1,14.3,0,28.7.1,43,0,4.1-.7,7.4-4.1,10.5-8.7,8-13.6,17.8-12.1,30.2.5,4.3-.1,8.6-.1,13,0,7.4.2,14.4-9,17.8-3.4,1.3-5.8,6.3-7.6,10.1s-4.2,5.6-9.5,3.7c-.2-17.2-.7-34.8-.5-52.3.1-3.2,2.7-6.7,4.9-9.4,5.1-6.2,10.6-12,15.9-18a23.3,23.3,0,0,0,5.9-16.5c0-7.3-3.2-13-10-15.9s-11.2-2.1-15.8,2.2-7.3,11-4.4,18.2Z" transform="translate(-2044 788.5)"/><path d="M2999.1,531.7c0,13.6.2,25.1-.2,36.6,0,2.3-1.9,5-3.7,6.6-15.3,13.8-30.8,27.4-46.3,41-1.5,1.3-3.4,2.7-5.1,2.7-13.9.3-27.8.2-42.3.2V565.9C2936.5,563,2968.4,550.7,2999.1,531.7Z" transform="translate(-2044 788.5)"/><path d="M3032.2-136.2c-25.1,10.7-44.7,26.7-62.1,49.1v-91l60.7-4.3c2.6,7.7,1.1,15.3,1.3,22.8S3032.2-144.4,3032.2-136.2Z" transform="translate(-2044 788.5)"/><path d="M3196.1-206.1l24.6-5.2c2.2,14.4,1.3,142.4-1.1,149.9a30.2,30.2,0,0,1-3.1-3.6c-7.4-14.2-15.7-27.7-26.9-39.4a14.4,14.4,0,0,1-3.3-8.8c-.4-9.9,0-19.9-.2-29.9-.2-5.3,1.1-9.9,4.9-13.6s5.3-9.5,5.2-15.4C3195.8-183.4,3196.1-194.6,3196.1-206.1Z" transform="translate(-2044 788.5)"/><path d="M3001.7,425.5c10.3,0,18.9-.1,27.5,0,3.8,0,6.8,1.1,8.9,5.1s4.9,6.7,8.2,11c-41.5,38.1-84.7,73.2-144.6,81.7V488.5c19.1,1,38.1-3,58.2,3.4a50.3,50.3,0,0,0,5.3-3.6c9.7-8.5,19.3-17.3,29.1-25.7,4.9-4.2,7.4-8.8,6.9-15.6S3001.5,433.3,3001.7,425.5Z" transform="translate(-2044 788.5)"/><path d="M3122.7-193.6l52.9-8.5c.3,11.1.5,21.6-.1,32-.1,2-2,4.3-3.6,5.7-5.4,4.1-6.4,9.5-6.1,15.8.4,8,.1,15.9.1,24.5l-43.2-19Z" transform="translate(-2044 788.5)"/><path d="M2901.6,467.5V425.9h78.7c1.1,7.3,0,14.5-.2,21.6-.1,1.4-1.3,2.9-2.3,4.2s-1.6,1.1-2.3,1.8c-10.8,10.9-23.4,16-39.2,14.3C2925.2,466.6,2913.9,467.5,2901.6,467.5Z" transform="translate(-2044 788.5)"/><path d="M3102.5-190.8c0,13.7.1,26.3,0,38.9,0,1.9-.4,3.8-.5,5.3l-49.4,3.2v-41.5Z" transform="translate(-2044 788.5)"/><path d="M3099.8,275.4c5.3-.1,10.2,4.9,10,10.1s-4.8,9.4-9.7,9.6a9.9,9.9,0,1,1-.3-19.7Z" transform="translate(-2044 788.5)"/><path d="M3062.1,350.7a10.4,10.4,0,0,1-9.7,9.7c-4.7,0-10.1-4.9-10.1-9.3s5.3-10.1,10.6-10.1A9.4,9.4,0,0,1,3062.1,350.7Z" transform="translate(-2044 788.5)"/><path class="cls-1" d="M3035.7-3.2c.1,27.1,23.6,50.5,50.4,50.3,28.4-.2,52-23.4,52-51.2s-23.7-50.9-51.2-50.6S3035.6-31.9,3035.7-3.2Z" transform="translate(-2044 788.5)"/><path d="M3035.7-3.2c-.1-28.7,22.2-51.2,51.2-51.5s51.1,23.1,51.2,50.6-23.6,51-52,51.2C3059.3,47.3,3035.8,23.9,3035.7-3.2Zm9.9-1.9c-.1,22.9,18.4,42.3,40.1,42.2,23.3-.1,42.1-18.6,42.2-41.5a40.1,40.1,0,0,0-40.5-40.4C3062.9-44.8,3045.7-28.4,3045.6-5.1Z" transform="translate(-2044 788.5)"/></svg>